<?xml version="1.0" standalone="no"?>
<!DOCTYPE svg PUBLIC "-//W3C//DTD SVG 1.1//EN" "http://www.w3.org/Graphics/SVG/1.1/DTD/svg11.dtd">
<svg width="644" height="644" version="1.1" xmlns="http://www.w3.org/2000/svg">
  <title>40 by 40 orthogonal maze</title>
  <desc>40 by 40 orthogonal maze generated by The Maze Generator Website (https://www.mazegenerator.net/).</desc>
  <g fill="none" stroke="#000000" stroke-width="2" stroke-linecap="square">
    <line x1="2" y1="2" x2="306" y2="2" />
    <line x1="322" y1="2" x2="642" y2="2" />
    <line x1="34" y1="18" x2="82" y2="18" />
    <line x1="114" y1="18" x2="146" y2="18" />
    <line x1="178" y1="18" x2="194" y2="18" />
    <line x1="210" y1="18" x2="226" y2="18" />
    <line x1="242" y1="18" x2="290" y2="18" />
    <line x1="386" y1="18" x2="402" y2="18" />
    <line x1="418" y1="18" x2="482" y2="18" />
    <line x1="530" y1="18" x2="562" y2="18" />
    <line x1="578" y1="18" x2="594" y2="18" />
    <line x1="18" y1="34" x2="34" y2="34" />
    <line x1="82" y1="34" x2="130" y2="34" />
    <line x1="162" y1="34" x2="178" y2="34" />
    <line x1="274" y1="34" x2="290" y2="34" />
    <line x1="306" y1="34" x2="370" y2="34" />
    <line x1="402" y1="34" x2="434" y2="34" />
    <line x1="450" y1="34" x2="466" y2="34" />
    <line x1="498" y1="34" x2="530" y2="34" />
    <line x1="562" y1="34" x2="594" y2="34" />
    <line x1="2" y1="50" x2="34" y2="50" />
    <line x1="50" y1="50" x2="98" y2="50" />
    <line x1="130" y1="50" x2="162" y2="50" />
    <line x1="178" y1="50" x2="210" y2="50" />
    <line x1="226" y1="50" x2="242" y2="50" />
    <line x1="258" y1="50" x2="306" y2="50" />
    <line x1="322" y1="50" x2="354" y2="50" />
    <line x1="370" y1="50" x2="418" y2="50" />
    <line x1="482" y1="50" x2="498" y2="50" />
    <line x1="514" y1="50" x2="546" y2="50" />
    <line x1="562" y1="50" x2="594" y2="50" />
    <line x1="610" y1="50" x2="626" y2="50" />
    <line x1="82" y1="66" x2="146" y2="66" />
    <line x1="210" y1="66" x2="226" y2="66" />
    <line x1="258" y1="66" x2="290" y2="66" />
    <line x1="306" y1="66" x2="338" y2="66" />
    <line x1="370" y1="66" x2="386" y2="66" />
    <line x1="402" y1="66" x2="434" y2="66" />
    <line x1="450" y1="66" x2="514" y2="66" />
    <line x1="626" y1="66" x2="642" y2="66" />
    <line x1="18" y1="82" x2="66" y2="82" />
    <line x1="82" y1="82" x2="162" y2="82" />
    <line x1="226" y1="82" x2="258" y2="82" />
    <line x1="386" y1="82" x2="418" y2="82" />
    <line x1="434" y1="82" x2="482" y2="82" />
    <line x1="498" y1="82" x2="530" y2="82" />
    <line x1="546" y1="82" x2="562" y2="82" />
    <line x1="578" y1="82" x2="594" y2="82" />
    <line x1="34" y1="98" x2="50" y2="98" />
    <line x1="66" y1="98" x2="98" y2="98" />
    <line x1="130" y1="98" x2="146" y2="98" />
    <line x1="162" y1="98" x2="210" y2="98" />
    <line x1="242" y1="98" x2="274" y2="98" />
    <line x1="354" y1="98" x2="370" y2="98" />
    <line x1="418" y1="98" x2="434" y2="98" />
    <line x1="466" y1="98" x2="514" y2="98" />
    <line x1="530" y1="98" x2="546" y2="98" />
    <line x1="594" y1="98" x2="626" y2="98" />
    <line x1="18" y1="114" x2="34" y2="114" />
    <line x1="114" y1="114" x2="178" y2="114" />
    <line x1="210" y1="114" x2="242" y2="114" />
    <line x1="258" y1="114" x2="290" y2="114" />
    <line x1="306" y1="114" x2="322" y2="114" />
    <line x1="354" y1="114" x2="370" y2="114" />
    <line x1="434" y1="114" x2="466" y2="114" />
    <line x1="498" y1="114" x2="514" y2="114" />
    <line x1="546" y1="114" x2="610" y2="114" />
    <line x1="626" y1="114" x2="642" y2="114" />
    <line x1="2" y1="130" x2="18" y2="130" />
    <line x1="66" y1="130" x2="146" y2="130" />
    <line x1="178" y1="130" x2="194" y2="130" />
    <line x1="210" y1="130" x2="226" y2="130" />
    <line x1="290" y1="130" x2="338" y2="130" />
    <line x1="370" y1="130" x2="402" y2="130" />
    <line x1="466" y1="130" x2="498" y2="130" />
    <line x1="514" y1="130" x2="562" y2="130" />
    <line x1="18" y1="146" x2="34" y2="146" />
    <line x1="82" y1="146" x2="98" y2="146" />
    <line x1="130" y1="146" x2="162" y2="146" />
    <line x1="242" y1="146" x2="306" y2="146" />
    <line x1="338" y1="146" x2="370" y2="146" />
    <line x1="402" y1="146" x2="418" y2="146" />
    <line x1="450" y1="146" x2="466" y2="146" />
    <line x1="498" y1="146" x2="546" y2="146" />
    <line x1="594" y1="146" x2="626" y2="146" />
    <line x1="2" y1="162" x2="66" y2="162" />
    <line x1="82" y1="162" x2="98" y2="162" />
    <line x1="114" y1="162" x2="130" y2="162" />
    <line x1="162" y1="162" x2="178" y2="162" />
    <line x1="210" y1="162" x2="242" y2="162" />
    <line x1="258" y1="162" x2="290" y2="162" />
    <line x1="306" y1="162" x2="354" y2="162" />
    <line x1="370" y1="162" x2="402" y2="162" />
    <line x1="434" y1="162" x2="482" y2="162" />
    <line x1="514" y1="162" x2="530" y2="162" />
    <line x1="594" y1="162" x2="626" y2="162" />
    <line x1="18" y1="178" x2="50" y2="178" />
    <line x1="66" y1="178" x2="82" y2="178" />
    <line x1="98" y1="178" x2="162" y2="178" />
    <line x1="194" y1="178" x2="210" y2="178" />
    <line x1="226" y1="178" x2="258" y2="178" />
    <line x1="322" y1="178" x2="338" y2="178" />
    <line x1="386" y1="178" x2="402" y2="178" />
    <line x1="418" y1="178" x2="434" y2="178" />
    <line x1="466" y1="178" x2="514" y2="178" />
    <line x1="626" y1="178" x2="642" y2="178" />
    <line x1="34" y1="194" x2="66" y2="194" />
    <line x1="146" y1="194" x2="194" y2="194" />
    <line x1="226" y1="194" x2="242" y2="194" />
    <line x1="258" y1="194" x2="306" y2="194" />
    <line x1="338" y1="194" x2="386" y2="194" />
    <line x1="434" y1="194" x2="466" y2="194" />
    <line x1="498" y1="194" x2="578" y2="194" />
    <line x1="594" y1="194" x2="642" y2="194" />
    <line x1="18" y1="210" x2="34" y2="210" />
    <line x1="66" y1="210" x2="98" y2="210" />
    <line x1="114" y1="210" x2="146" y2="210" />
    <line x1="162" y1="210" x2="258" y2="210" />
    <line x1="274" y1="210" x2="370" y2="210" />
    <line x1="386" y1="210" x2="418" y2="210" />
    <line x1="450" y1="210" x2="482" y2="210" />
    <line x1="498" y1="210" x2="562" y2="210" />
    <line x1="610" y1="210" x2="626" y2="210" />
    <line x1="2" y1="226" x2="18" y2="226" />
    <line x1="98" y1="226" x2="178" y2="226" />
    <line x1="226" y1="226" x2="274" y2="226" />
    <line x1="290" y1="226" x2="354" y2="226" />
    <line x1="370" y1="226" x2="386" y2="226" />
    <line x1="466" y1="226" x2="498" y2="226" />
    <line x1="514" y1="226" x2="546" y2="226" />
    <line x1="562" y1="226" x2="610" y2="226" />
    <line x1="626" y1="226" x2="642" y2="226" />
    <line x1="18" y1="242" x2="66" y2="242" />
    <line x1="82" y1="242" x2="146" y2="242" />
    <line x1="178" y1="242" x2="194" y2="242" />
    <line x1="242" y1="242" x2="306" y2="242" />
    <line x1="354" y1="242" x2="434" y2="242" />
    <line x1="530" y1="242" x2="546" y2="242" />
    <line x1="610" y1="242" x2="626" y2="242" />
    <line x1="2" y1="258" x2="66" y2="258" />
    <line x1="82" y1="258" x2="98" y2="258" />
    <line x1="146" y1="258" x2="178" y2="258" />
    <line x1="194" y1="258" x2="258" y2="258" />
    <line x1="290" y1="258" x2="354" y2="258" />
    <line x1="386" y1="258" x2="418" y2="258" />
    <line x1="434" y1="258" x2="450" y2="258" />
    <line x1="466" y1="258" x2="514" y2="258" />
    <line x1="530" y1="258" x2="578" y2="258" />
    <line x1="594" y1="258" x2="610" y2="258" />
    <line x1="18" y1="274" x2="50" y2="274" />
    <line x1="66" y1="274" x2="162" y2="274" />
    <line x1="210" y1="274" x2="226" y2="274" />
    <line x1="258" y1="274" x2="306" y2="274" />
    <line x1="386" y1="274" x2="402" y2="274" />
    <line x1="418" y1="274" x2="434" y2="274" />
    <line x1="450" y1="274" x2="482" y2="274" />
    <line x1="514" y1="274" x2="530" y2="274" />
    <line x1="562" y1="274" x2="594" y2="274" />
    <line x1="610" y1="274" x2="626" y2="274" />
    <line x1="18" y1="290" x2="34" y2="290" />
    <line x1="66" y1="290" x2="98" y2="290" />
    <line x1="114" y1="290" x2="210" y2="290" />
    <line x1="226" y1="290" x2="258" y2="290" />
    <line x1="306" y1="290" x2="370" y2="290" />
    <line x1="402" y1="290" x2="418" y2="290" />
    <line x1="434" y1="290" x2="562" y2="290" />
    <line x1="626" y1="290" x2="642" y2="290" />
    <line x1="2" y1="306" x2="18" y2="306" />
    <line x1="34" y1="306" x2="66" y2="306" />
    <line x1="98" y1="306" x2="146" y2="306" />
    <line x1="162" y1="306" x2="226" y2="306" />
    <line x1="242" y1="306" x2="258" y2="306" />
    <line x1="290" y1="306" x2="306" y2="306" />
    <line x1="370" y1="306" x2="386" y2="306" />
    <line x1="418" y1="306" x2="434" y2="306" />
    <line x1="482" y1="306" x2="514" y2="306" />
    <line x1="562" y1="306" x2="578" y2="306" />
    <line x1="626" y1="306" x2="642" y2="306" />
    <line x1="18" y1="322" x2="34" y2="322" />
    <line x1="50" y1="322" x2="82" y2="322" />
    <line x1="146" y1="322" x2="178" y2="322" />
    <line x1="226" y1="322" x2="242" y2="322" />
    <line x1="258" y1="322" x2="290" y2="322" />
    <line x1="306" y1="322" x2="370" y2="322" />
    <line x1="386" y1="322" x2="402" y2="322" />
    <line x1="418" y1="322" x2="434" y2="322" />
    <line x1="498" y1="322" x2="546" y2="322" />
    <line x1="578" y1="322" x2="594" y2="322" />
    <line x1="610" y1="322" x2="626" y2="322" />
    <line x1="50" y1="338" x2="66" y2="338" />
    <line x1="82" y1="338" x2="130" y2="338" />
    <line x1="146" y1="338" x2="162" y2="338" />
    <line x1="194" y1="338" x2="226" y2="338" />
    <line x1="242" y1="338" x2="258" y2="338" />
    <line x1="322" y1="338" x2="338" y2="338" />
    <line x1="370" y1="338" x2="418" y2="338" />
    <line x1="434" y1="338" x2="450" y2="338" />
    <line x1="482" y1="338" x2="498" y2="338" />
    <line x1="514" y1="338" x2="562" y2="338" />
    <line x1="594" y1="338" x2="610" y2="338" />
    <line x1="18" y1="354" x2="34" y2="354" />
    <line x1="66" y1="354" x2="98" y2="354" />
    <line x1="146" y1="354" x2="162" y2="354" />
    <line x1="194" y1="354" x2="290" y2="354" />
    <line x1="306" y1="354" x2="322" y2="354" />
    <line x1="338" y1="354" x2="370" y2="354" />
    <line x1="386" y1="354" x2="418" y2="354" />
    <line x1="450" y1="354" x2="546" y2="354" />
    <line x1="562" y1="354" x2="610" y2="354" />
    <line x1="2" y1="370" x2="66" y2="370" />
    <line x1="98" y1="370" x2="114" y2="370" />
    <line x1="130" y1="370" x2="146" y2="370" />
    <line x1="162" y1="370" x2="226" y2="370" />
    <line x1="322" y1="370" x2="354" y2="370" />
    <line x1="370" y1="370" x2="434" y2="370" />
    <line x1="450" y1="370" x2="466" y2="370" />
    <line x1="482" y1="370" x2="498" y2="370" />
    <line x1="546" y1="370" x2="562" y2="370" />
    <line x1="610" y1="370" x2="626" y2="370" />
    <line x1="2" y1="386" x2="18" y2="386" />
    <line x1="34" y1="386" x2="50" y2="386" />
    <line x1="66" y1="386" x2="130" y2="386" />
    <line x1="146" y1="386" x2="162" y2="386" />
    <line x1="194" y1="386" x2="226" y2="386" />
    <line x1="242" y1="386" x2="258" y2="386" />
    <line x1="322" y1="386" x2="338" y2="386" />
    <line x1="354" y1="386" x2="402" y2="386" />
    <line x1="434" y1="386" x2="482" y2="386" />
    <line x1="514" y1="386" x2="530" y2="386" />
    <line x1="626" y1="386" x2="642" y2="386" />
    <line x1="18" y1="402" x2="50" y2="402" />
    <line x1="82" y1="402" x2="194" y2="402" />
    <line x1="210" y1="402" x2="242" y2="402" />
    <line x1="258" y1="402" x2="322" y2="402" />
    <line x1="338" y1="402" x2="370" y2="402" />
    <line x1="386" y1="402" x2="450" y2="402" />
    <line x1="498" y1="402" x2="514" y2="402" />
    <line x1="530" y1="402" x2="546" y2="402" />
    <line x1="578" y1="402" x2="610" y2="402" />
    <line x1="50" y1="418" x2="146" y2="418" />
    <line x1="178" y1="418" x2="194" y2="418" />
    <line x1="226" y1="418" x2="258" y2="418" />
    <line x1="322" y1="418" x2="338" y2="418" />
    <line x1="370" y1="418" x2="402" y2="418" />
    <line x1="434" y1="418" x2="450" y2="418" />
    <line x1="466" y1="418" x2="482" y2="418" />
    <line x1="514" y1="418" x2="578" y2="418" />
    <line x1="610" y1="418" x2="626" y2="418" />
    <line x1="34" y1="434" x2="82" y2="434" />
    <line x1="98" y1="434" x2="130" y2="434" />
    <line x1="162" y1="434" x2="178" y2="434" />
    <line x1="194" y1="434" x2="258" y2="434" />
    <line x1="274" y1="434" x2="306" y2="434" />
    <line x1="386" y1="434" x2="418" y2="434" />
    <line x1="450" y1="434" x2="514" y2="434" />
    <line x1="530" y1="434" x2="594" y2="434" />
    <line x1="2" y1="450" x2="18" y2="450" />
    <line x1="66" y1="450" x2="82" y2="450" />
    <line x1="130" y1="450" x2="146" y2="450" />
    <line x1="178" y1="450" x2="194" y2="450" />
    <line x1="258" y1="450" x2="274" y2="450" />
    <line x1="290" y1="450" x2="322" y2="450" />
    <line x1="354" y1="450" x2="370" y2="450" />
    <line x1="402" y1="450" x2="434" y2="450" />
    <line x1="450" y1="450" x2="466" y2="450" />
    <line x1="498" y1="450" x2="530" y2="450" />
    <line x1="562" y1="450" x2="594" y2="450" />
    <line x1="610" y1="450" x2="642" y2="450" />
    <line x1="18" y1="466" x2="66" y2="466" />
    <line x1="98" y1="466" x2="258" y2="466" />
    <line x1="274" y1="466" x2="322" y2="466" />
    <line x1="338" y1="466" x2="354" y2="466" />
    <line x1="370" y1="466" x2="418" y2="466" />
    <line x1="434" y1="466" x2="450" y2="466" />
    <line x1="466" y1="466" x2="482" y2="466" />
    <line x1="514" y1="466" x2="546" y2="466" />
    <line x1="18" y1="482" x2="66" y2="482" />
    <line x1="82" y1="482" x2="130" y2="482" />
    <line x1="162" y1="482" x2="194" y2="482" />
    <line x1="210" y1="482" x2="226" y2="482" />
    <line x1="242" y1="482" x2="258" y2="482" />
    <line x1="274" y1="482" x2="290" y2="482" />
    <line x1="354" y1="482" x2="370" y2="482" />
    <line x1="418" y1="482" x2="434" y2="482" />
    <line x1="466" y1="482" x2="498" y2="482" />
    <line x1="514" y1="482" x2="530" y2="482" />
    <line x1="594" y1="482" x2="610" y2="482" />
    <line x1="66" y1="498" x2="82" y2="498" />
    <line x1="98" y1="498" x2="146" y2="498" />
    <line x1="194" y1="498" x2="210" y2="498" />
    <line x1="242" y1="498" x2="434" y2="498" />
    <line x1="482" y1="498" x2="578" y2="498" />
    <line x1="610" y1="498" x2="626" y2="498" />
    <line x1="34" y1="514" x2="66" y2="514" />
    <line x1="146" y1="514" x2="178" y2="514" />
    <line x1="210" y1="514" x2="306" y2="514" />
    <line x1="338" y1="514" x2="354" y2="514" />
    <line x1="402" y1="514" x2="482" y2="514" />
    <line x1="498" y1="514" x2="514" y2="514" />
    <line x1="530" y1="514" x2="562" y2="514" />
    <line x1="578" y1="514" x2="610" y2="514" />
    <line x1="50" y1="530" x2="98" y2="530" />
    <line x1="130" y1="530" x2="146" y2="530" />
    <line x1="162" y1="530" x2="178" y2="530" />
    <line x1="210" y1="530" x2="226" y2="530" />
    <line x1="242" y1="530" x2="290" y2="530" />
    <line x1="322" y1="530" x2="338" y2="530" />
    <line x1="434" y1="530" x2="450" y2="530" />
    <line x1="482" y1="530" x2="498" y2="530" />
    <line x1="514" y1="530" x2="530" y2="530" />
    <line x1="562" y1="530" x2="578" y2="530" />
    <line x1="594" y1="530" x2="642" y2="530" />
    <line x1="66" y1="546" x2="114" y2="546" />
    <line x1="146" y1="546" x2="162" y2="546" />
    <line x1="210" y1="546" x2="274" y2="546" />
    <line x1="354" y1="546" x2="370" y2="546" />
    <line x1="386" y1="546" x2="418" y2="546" />
    <line x1="450" y1="546" x2="466" y2="546" />
    <line x1="498" y1="546" x2="514" y2="546" />
    <line x1="530" y1="546" x2="562" y2="546" />
    <line x1="578" y1="546" x2="594" y2="546" />
    <line x1="610" y1="546" x2="626" y2="546" />
    <line x1="50" y1="562" x2="130" y2="562" />
    <line x1="178" y1="562" x2="194" y2="562" />
    <line x1="210" y1="562" x2="226" y2="562" />
    <line x1="242" y1="562" x2="258" y2="562" />
    <line x1="290" y1="562" x2="322" y2="562" />
    <line x1="370" y1="562" x2="386" y2="562" />
    <line x1="418" y1="562" x2="482" y2="562" />
    <line x1="498" y1="562" x2="530" y2="562" />
    <line x1="562" y1="562" x2="610" y2="562" />
    <line x1="18" y1="578" x2="50" y2="578" />
    <line x1="66" y1="578" x2="82" y2="578" />
    <line x1="114" y1="578" x2="146" y2="578" />
    <line x1="162" y1="578" x2="178" y2="578" />
    <line x1="194" y1="578" x2="210" y2="578" />
    <line x1="226" y1="578" x2="242" y2="578" />
    <line x1="258" y1="578" x2="274" y2="578" />
    <line x1="322" y1="578" x2="338" y2="578" />
    <line x1="370" y1="578" x2="418" y2="578" />
    <line x1="434" y1="578" x2="450" y2="578" />
    <line x1="482" y1="578" x2="498" y2="578" />
    <line x1="514" y1="578" x2="562" y2="578" />
    <line x1="610" y1="578" x2="626" y2="578" />
    <line x1="18" y1="594" x2="66" y2="594" />
    <line x1="82" y1="594" x2="194" y2="594" />
    <line x1="210" y1="594" x2="242" y2="594" />
    <line x1="258" y1="594" x2="290" y2="594" />
    <line x1="338" y1="594" x2="354" y2="594" />
    <line x1="386" y1="594" x2="402" y2="594" />
    <line x1="418" y1="594" x2="434" y2="594" />
    <line x1="450" y1="594" x2="482" y2="594" />
    <line x1="498" y1="594" x2="530" y2="594" />
    <line x1="546" y1="594" x2="562" y2="594" />
    <line x1="578" y1="594" x2="594" y2="594" />
    <line x1="626" y1="594" x2="642" y2="594" />
    <line x1="2" y1="610" x2="34" y2="610" />
    <line x1="66" y1="610" x2="82" y2="610" />
    <line x1="130" y1="610" x2="226" y2="610" />
    <line x1="242" y1="610" x2="290" y2="610" />
    <line x1="306" y1="610" x2="338" y2="610" />
    <line x1="370" y1="610" x2="386" y2="610" />
    <line x1="402" y1="610" x2="450" y2="610" />
    <line x1="482" y1="610" x2="514" y2="610" />
    <line x1="546" y1="610" x2="578" y2="610" />
    <line x1="34" y1="626" x2="50" y2="626" />
    <line x1="66" y1="626" x2="130" y2="626" />
    <line x1="146" y1="626" x2="178" y2="626" />
    <line x1="194" y1="626" x2="210" y2="626" />
    <line x1="226" y1="626" x2="258" y2="626" />
    <line x1="290" y1="626" x2="306" y2="626" />
    <line x1="322" y1="626" x2="402" y2="626" />
    <line x1="434" y1="626" x2="450" y2="626" />
    <line x1="466" y1="626" x2="498" y2="626" />
    <line x1="530" y1="626" x2="546" y2="626" />
    <line x1="578" y1="626" x2="610" y2="626" />
    <line x1="626" y1="626" x2="642" y2="626" />
    <line x1="2" y1="642" x2="322" y2="642" />
    <line x1="338" y1="642" x2="642" y2="642" />
    <line x1="2" y1="2" x2="2" y2="642" />
    <line x1="18" y1="18" x2="18" y2="34" />
    <line x1="18" y1="66" x2="18" y2="98" />
    <line x1="18" y1="130" x2="18" y2="146" />
    <line x1="18" y1="178" x2="18" y2="210" />
    <line x1="18" y1="290" x2="18" y2="306" />
    <line x1="18" y1="338" x2="18" y2="354" />
    <line x1="18" y1="402" x2="18" y2="450" />
    <line x1="18" y1="482" x2="18" y2="578" />
    <line x1="18" y1="610" x2="18" y2="626" />
    <line x1="34" y1="2" x2="34" y2="34" />
    <line x1="34" y1="66" x2="34" y2="82" />
    <line x1="34" y1="98" x2="34" y2="130" />
    <line x1="34" y1="210" x2="34" y2="226" />
    <line x1="34" y1="306" x2="34" y2="354" />
    <line x1="34" y1="418" x2="34" y2="466" />
    <line x1="34" y1="498" x2="34" y2="562" />
    <line x1="50" y1="34" x2="50" y2="66" />
    <line x1="50" y1="98" x2="50" y2="162" />
    <line x1="50" y1="178" x2="50" y2="226" />
    <line x1="50" y1="274" x2="50" y2="306" />
    <line x1="50" y1="322" x2="50" y2="386" />
    <line x1="50" y1="402" x2="50" y2="418" />
    <line x1="50" y1="450" x2="50" y2="466" />
    <line x1="50" y1="482" x2="50" y2="498" />
    <line x1="50" y1="530" x2="50" y2="578" />
    <line x1="50" y1="594" x2="50" y2="642" />
    <line x1="66" y1="18" x2="66" y2="34" />
    <line x1="66" y1="50" x2="66" y2="98" />
    <line x1="66" y1="114" x2="66" y2="178" />
    <line x1="66" y1="194" x2="66" y2="274" />
    <line x1="66" y1="290" x2="66" y2="306" />
    <line x1="66" y1="402" x2="66" y2="418" />
    <line x1="66" y1="498" x2="66" y2="514" />
    <line x1="66" y1="578" x2="66" y2="594" />
    <line x1="66" y1="610" x2="66" y2="626" />
    <line x1="82" y1="66" x2="82" y2="82" />
    <line x1="82" y1="98" x2="82" y2="114" />
    <line x1="82" y1="146" x2="82" y2="162" />
    <line x1="82" y1="178" x2="82" y2="194" />
    <line x1="82" y1="226" x2="82" y2="258" />
    <line x1="82" y1="306" x2="82" y2="338" />
    <line x1="82" y1="370" x2="82" y2="386" />
    <line x1="82" y1="434" x2="82" y2="530" />
    <line x1="82" y1="594" x2="82" y2="610" />
    <line x1="98" y1="18" x2="98" y2="34" />
    <line x1="98" y1="98" x2="98" y2="130" />
    <line x1="98" y1="162" x2="98" y2="194" />
    <line x1="98" y1="210" x2="98" y2="226" />
    <line x1="98" y1="290" x2="98" y2="322" />
    <line x1="98" y1="354" x2="98" y2="370" />
    <line x1="98" y1="418" x2="98" y2="466" />
    <line x1="98" y1="514" x2="98" y2="530" />
    <line x1="98" y1="562" x2="98" y2="594" />
    <line x1="98" y1="610" x2="98" y2="626" />
    <line x1="114" y1="2" x2="114" y2="18" />
    <line x1="114" y1="50" x2="114" y2="66" />
    <line x1="114" y1="82" x2="114" y2="114" />
    <line x1="114" y1="130" x2="114" y2="162" />
    <line x1="114" y1="194" x2="114" y2="210" />
    <line x1="114" y1="258" x2="114" y2="274" />
    <line x1="114" y1="306" x2="114" y2="322" />
    <line x1="114" y1="338" x2="114" y2="370" />
    <line x1="114" y1="450" x2="114" y2="466" />
    <line x1="114" y1="498" x2="114" y2="546" />
    <line x1="114" y1="594" x2="114" y2="610" />
    <line x1="130" y1="34" x2="130" y2="50" />
    <line x1="130" y1="178" x2="130" y2="194" />
    <line x1="130" y1="242" x2="130" y2="274" />
    <line x1="130" y1="322" x2="130" y2="338" />
    <line x1="130" y1="354" x2="130" y2="402" />
    <line x1="130" y1="434" x2="130" y2="450" />
    <line x1="130" y1="514" x2="130" y2="562" />
    <line x1="130" y1="610" x2="130" y2="626" />
    <line x1="146" y1="18" x2="146" y2="34" />
    <line x1="146" y1="98" x2="146" y2="114" />
    <line x1="146" y1="146" x2="146" y2="178" />
    <line x1="146" y1="194" x2="146" y2="226" />
    <line x1="146" y1="290" x2="146" y2="322" />
    <line x1="146" y1="338" x2="146" y2="354" />
    <line x1="146" y1="418" x2="146" y2="434" />
    <line x1="146" y1="466" x2="146" y2="514" />
    <line x1="146" y1="546" x2="146" y2="578" />
    <line x1="146" y1="626" x2="146" y2="642" />
    <line x1="162" y1="2" x2="162" y2="82" />
    <line x1="162" y1="114" x2="162" y2="146" />
    <line x1="162" y1="226" x2="162" y2="258" />
    <line x1="162" y1="354" x2="162" y2="386" />
    <line x1="162" y1="402" x2="162" y2="434" />
    <line x1="162" y1="450" x2="162" y2="466" />
    <line x1="162" y1="482" x2="162" y2="498" />
    <line x1="162" y1="530" x2="162" y2="578" />
    <line x1="178" y1="18" x2="178" y2="34" />
    <line x1="178" y1="66" x2="178" y2="98" />
    <line x1="178" y1="130" x2="178" y2="162" />
    <line x1="178" y1="178" x2="178" y2="194" />
    <line x1="178" y1="258" x2="178" y2="290" />
    <line x1="178" y1="322" x2="178" y2="354" />
    <line x1="178" y1="386" x2="178" y2="402" />
    <line x1="178" y1="434" x2="178" y2="450" />
    <line x1="178" y1="498" x2="178" y2="530" />
    <line x1="178" y1="546" x2="178" y2="562" />
    <line x1="194" y1="34" x2="194" y2="82" />
    <line x1="194" y1="98" x2="194" y2="178" />
    <line x1="194" y1="226" x2="194" y2="274" />
    <line x1="194" y1="322" x2="194" y2="338" />
    <line x1="194" y1="370" x2="194" y2="386" />
    <line x1="194" y1="418" x2="194" y2="434" />
    <line x1="194" y1="450" x2="194" y2="466" />
    <line x1="194" y1="482" x2="194" y2="594" />
    <line x1="194" y1="626" x2="194" y2="642" />
    <line x1="210" y1="2" x2="210" y2="50" />
    <line x1="210" y1="66" x2="210" y2="114" />
    <line x1="210" y1="130" x2="210" y2="162" />
    <line x1="210" y1="178" x2="210" y2="194" />
    <line x1="210" y1="210" x2="210" y2="242" />
    <line x1="210" y1="274" x2="210" y2="290" />
    <line x1="210" y1="306" x2="210" y2="322" />
    <line x1="210" y1="386" x2="210" y2="418" />
    <line x1="210" y1="434" x2="210" y2="450" />
    <line x1="210" y1="466" x2="210" y2="482" />
    <line x1="210" y1="498" x2="210" y2="530" />
    <line x1="210" y1="578" x2="210" y2="594" />
    <line x1="226" y1="34" x2="226" y2="66" />
    <line x1="226" y1="82" x2="226" y2="98" />
    <line x1="226" y1="130" x2="226" y2="146" />
    <line x1="226" y1="178" x2="226" y2="194" />
    <line x1="226" y1="226" x2="226" y2="258" />
    <line x1="226" y1="290" x2="226" y2="306" />
    <line x1="226" y1="322" x2="226" y2="354" />
    <line x1="226" y1="418" x2="226" y2="434" />
    <line x1="226" y1="450" x2="226" y2="466" />
    <line x1="226" y1="482" x2="226" y2="498" />
    <line x1="226" y1="546" x2="226" y2="578" />
    <line x1="226" y1="626" x2="226" y2="642" />
    <line x1="242" y1="2" x2="242" y2="34" />
    <line x1="242" y1="50" x2="242" y2="82" />
    <line x1="242" y1="98" x2="242" y2="162" />
    <line x1="242" y1="258" x2="242" y2="290" />
    <line x1="242" y1="306" x2="242" y2="338" />
    <line x1="242" y1="354" x2="242" y2="370" />
    <line x1="242" y1="386" x2="242" y2="402" />
    <line x1="242" y1="434" x2="242" y2="450" />
    <line x1="242" y1="498" x2="242" y2="514" />
    <line x1="242" y1="530" x2="242" y2="546" />
    <line x1="242" y1="562" x2="242" y2="578" />
    <line x1="242" y1="594" x2="242" y2="610" />
    <line x1="258" y1="34" x2="258" y2="66" />
    <line x1="258" y1="114" x2="258" y2="130" />
    <line x1="258" y1="162" x2="258" y2="210" />
    <line x1="258" y1="354" x2="258" y2="386" />
    <line x1="258" y1="402" x2="258" y2="418" />
    <line x1="258" y1="450" x2="258" y2="482" />
    <line x1="274" y1="66" x2="274" y2="98" />
    <line x1="274" y1="130" x2="274" y2="146" />
    <line x1="274" y1="178" x2="274" y2="194" />
    <line x1="274" y1="210" x2="274" y2="226" />
    <line x1="274" y1="242" x2="274" y2="338" />
    <line x1="274" y1="370" x2="274" y2="402" />
    <line x1="274" y1="418" x2="274" y2="450" />
    <line x1="274" y1="482" x2="274" y2="498" />
    <line x1="274" y1="546" x2="274" y2="578" />
    <line x1="274" y1="626" x2="274" y2="642" />
    <line x1="290" y1="18" x2="290" y2="34" />
    <line x1="290" y1="82" x2="290" y2="130" />
    <line x1="290" y1="162" x2="290" y2="178" />
    <line x1="290" y1="290" x2="290" y2="306" />
    <line x1="290" y1="322" x2="290" y2="386" />
    <line x1="290" y1="402" x2="290" y2="418" />
    <line x1="290" y1="450" x2="290" y2="466" />
    <line x1="290" y1="530" x2="290" y2="578" />
    <line x1="290" y1="594" x2="290" y2="610" />
    <line x1="306" y1="2" x2="306" y2="18" />
    <line x1="306" y1="34" x2="306" y2="114" />
    <line x1="306" y1="162" x2="306" y2="194" />
    <line x1="306" y1="274" x2="306" y2="290" />
    <line x1="306" y1="306" x2="306" y2="402" />
    <line x1="306" y1="418" x2="306" y2="434" />
    <line x1="306" y1="482" x2="306" y2="498" />
    <line x1="306" y1="514" x2="306" y2="546" />
    <line x1="306" y1="562" x2="306" y2="626" />
    <line x1="322" y1="18" x2="322" y2="34" />
    <line x1="322" y1="82" x2="322" y2="114" />
    <line x1="322" y1="130" x2="322" y2="146" />
    <line x1="322" y1="178" x2="322" y2="210" />
    <line x1="322" y1="226" x2="322" y2="258" />
    <line x1="322" y1="274" x2="322" y2="306" />
    <line x1="322" y1="338" x2="322" y2="354" />
    <line x1="322" y1="402" x2="322" y2="450" />
    <line x1="322" y1="466" x2="322" y2="482" />
    <line x1="322" y1="498" x2="322" y2="530" />
    <line x1="322" y1="546" x2="322" y2="562" />
    <line x1="322" y1="578" x2="322" y2="610" />
    <line x1="322" y1="626" x2="322" y2="642" />
    <line x1="338" y1="2" x2="338" y2="18" />
    <line x1="338" y1="66" x2="338" y2="146" />
    <line x1="338" y1="242" x2="338" y2="274" />
    <line x1="338" y1="306" x2="338" y2="322" />
    <line x1="338" y1="386" x2="338" y2="402" />
    <line x1="338" y1="418" x2="338" y2="450" />
    <line x1="338" y1="466" x2="338" y2="498" />
    <line x1="338" y1="530" x2="338" y2="578" />
    <line x1="354" y1="18" x2="354" y2="98" />
    <line x1="354" y1="114" x2="354" y2="130" />
    <line x1="354" y1="162" x2="354" y2="194" />
    <line x1="354" y1="210" x2="354" y2="242" />
    <line x1="354" y1="274" x2="354" y2="306" />
    <line x1="354" y1="322" x2="354" y2="354" />
    <line x1="354" y1="370" x2="354" y2="386" />
    <line x1="354" y1="402" x2="354" y2="482" />
    <line x1="354" y1="514" x2="354" y2="626" />
    <line x1="370" y1="2" x2="370" y2="34" />
    <line x1="370" y1="50" x2="370" y2="82" />
    <line x1="370" y1="98" x2="370" y2="114" />
    <line x1="370" y1="146" x2="370" y2="178" />
    <line x1="370" y1="242" x2="370" y2="290" />
    <line x1="370" y1="306" x2="370" y2="322" />
    <line x1="370" y1="354" x2="370" y2="370" />
    <line x1="370" y1="402" x2="370" y2="418" />
    <line x1="370" y1="434" x2="370" y2="450" />
    <line x1="370" y1="498" x2="370" y2="530" />
    <line x1="370" y1="578" x2="370" y2="610" />
    <line x1="386" y1="18" x2="386" y2="50" />
    <line x1="386" y1="98" x2="386" y2="162" />
    <line x1="386" y1="178" x2="386" y2="226" />
    <line x1="386" y1="258" x2="386" y2="306" />
    <line x1="386" y1="386" x2="386" y2="402" />
    <line x1="386" y1="434" x2="386" y2="466" />
    <line x1="386" y1="482" x2="386" y2="562" />
    <line x1="386" y1="610" x2="386" y2="626" />
    <line x1="402" y1="18" x2="402" y2="34" />
    <line x1="402" y1="98" x2="402" y2="130" />
    <line x1="402" y1="178" x2="402" y2="194" />
    <line x1="402" y1="226" x2="402" y2="242" />
    <line x1="402" y1="290" x2="402" y2="322" />
    <line x1="402" y1="466" x2="402" y2="498" />
    <line x1="402" y1="514" x2="402" y2="530" />
    <line x1="402" y1="562" x2="402" y2="578" />
    <line x1="402" y1="594" x2="402" y2="610" />
    <line x1="418" y1="2" x2="418" y2="18" />
    <line x1="418" y1="66" x2="418" y2="226" />
    <line x1="418" y1="258" x2="418" y2="290" />
    <line x1="418" y1="322" x2="418" y2="354" />
    <line x1="418" y1="370" x2="418" y2="434" />
    <line x1="418" y1="530" x2="418" y2="562" />
    <line x1="418" y1="578" x2="418" y2="594" />
    <line x1="418" y1="610" x2="418" y2="642" />
    <line x1="434" y1="34" x2="434" y2="66" />
    <line x1="434" y1="82" x2="434" y2="98" />
    <line x1="434" y1="114" x2="434" y2="162" />
    <line x1="434" y1="194" x2="434" y2="258" />
    <line x1="434" y1="290" x2="434" y2="322" />
    <line x1="434" y1="338" x2="434" y2="370" />
    <line x1="434" y1="418" x2="434" y2="466" />
    <line x1="434" y1="482" x2="434" y2="498" />
    <line x1="434" y1="514" x2="434" y2="546" />
    <line x1="434" y1="578" x2="434" y2="594" />
    <line x1="450" y1="50" x2="450" y2="66" />
    <line x1="450" y1="98" x2="450" y2="146" />
    <line x1="450" y1="162" x2="450" y2="194" />
    <line x1="450" y1="210" x2="450" y2="226" />
    <line x1="450" y1="242" x2="450" y2="290" />
    <line x1="450" y1="306" x2="450" y2="338" />
    <line x1="450" y1="354" x2="450" y2="370" />
    <line x1="450" y1="386" x2="450" y2="402" />
    <line x1="450" y1="434" x2="450" y2="450" />
    <line x1="450" y1="466" x2="450" y2="514" />
    <line x1="450" y1="546" x2="450" y2="578" />
    <line x1="450" y1="594" x2="450" y2="610" />
    <line x1="450" y1="626" x2="450" y2="642" />
    <line x1="466" y1="34" x2="466" y2="66" />
    <line x1="466" y1="82" x2="466" y2="98" />
    <line x1="466" y1="226" x2="466" y2="258" />
    <line x1="466" y1="290" x2="466" y2="354" />
    <line x1="466" y1="402" x2="466" y2="418" />
    <line x1="466" y1="450" x2="466" y2="466" />
    <line x1="466" y1="482" x2="466" y2="498" />
    <line x1="466" y1="530" x2="466" y2="546" />
    <line x1="466" y1="578" x2="466" y2="594" />
    <line x1="466" y1="610" x2="466" y2="626" />
    <line x1="482" y1="18" x2="482" y2="50" />
    <line x1="482" y1="98" x2="482" y2="162" />
    <line x1="482" y1="178" x2="482" y2="226" />
    <line x1="482" y1="242" x2="482" y2="258" />
    <line x1="482" y1="306" x2="482" y2="338" />
    <line x1="482" y1="386" x2="482" y2="402" />
    <line x1="482" y1="418" x2="482" y2="434" />
    <line x1="482" y1="450" x2="482" y2="466" />
    <line x1="482" y1="498" x2="482" y2="530" />
    <line x1="482" y1="546" x2="482" y2="578" />
    <line x1="482" y1="594" x2="482" y2="610" />
    <line x1="498" y1="2" x2="498" y2="18" />
    <line x1="498" y1="82" x2="498" y2="98" />
    <line x1="498" y1="114" x2="498" y2="130" />
    <line x1="498" y1="146" x2="498" y2="178" />
    <line x1="498" y1="194" x2="498" y2="210" />
    <line x1="498" y1="226" x2="498" y2="242" />
    <line x1="498" y1="274" x2="498" y2="290" />
    <line x1="498" y1="322" x2="498" y2="338" />
    <line x1="498" y1="370" x2="498" y2="418" />
    <line x1="498" y1="434" x2="498" y2="498" />
    <line x1="498" y1="530" x2="498" y2="546" />
    <line x1="498" y1="562" x2="498" y2="594" />
    <line x1="498" y1="626" x2="498" y2="642" />
    <line x1="514" y1="2" x2="514" y2="66" />
    <line x1="514" y1="130" x2="514" y2="146" />
    <line x1="514" y1="226" x2="514" y2="274" />
    <line x1="514" y1="370" x2="514" y2="402" />
    <line x1="514" y1="418" x2="514" y2="434" />
    <line x1="514" y1="466" x2="514" y2="482" />
    <line x1="514" y1="498" x2="514" y2="514" />
    <line x1="514" y1="610" x2="514" y2="626" />
    <line x1="530" y1="66" x2="530" y2="130" />
    <line x1="530" y1="162" x2="530" y2="194" />
    <line x1="530" y1="242" x2="530" y2="258" />
    <line x1="530" y1="306" x2="530" y2="322" />
    <line x1="530" y1="354" x2="530" y2="386" />
    <line x1="530" y1="402" x2="530" y2="418" />
    <line x1="530" y1="434" x2="530" y2="450" />
    <line x1="530" y1="530" x2="530" y2="562" />
    <line x1="530" y1="578" x2="530" y2="626" />
    <line x1="546" y1="18" x2="546" y2="82" />
    <line x1="546" y1="146" x2="546" y2="178" />
    <line x1="546" y1="258" x2="546" y2="322" />
    <line x1="546" y1="338" x2="546" y2="354" />
    <line x1="546" y1="370" x2="546" y2="402" />
    <line x1="546" y1="450" x2="546" y2="498" />
    <line x1="546" y1="514" x2="546" y2="530" />
    <line x1="546" y1="562" x2="546" y2="578" />
    <line x1="546" y1="594" x2="546" y2="610" />
    <line x1="562" y1="34" x2="562" y2="50" />
    <line x1="562" y1="66" x2="562" y2="98" />
    <line x1="562" y1="130" x2="562" y2="178" />
    <line x1="562" y1="210" x2="562" y2="242" />
    <line x1="562" y1="306" x2="562" y2="338" />
    <line x1="562" y1="354" x2="562" y2="402" />
    <line x1="562" y1="434" x2="562" y2="482" />
    <line x1="562" y1="498" x2="562" y2="514" />
    <line x1="562" y1="530" x2="562" y2="562" />
    <line x1="562" y1="610" x2="562" y2="642" />
    <line x1="578" y1="50" x2="578" y2="66" />
    <line x1="578" y1="82" x2="578" y2="210" />
    <line x1="578" y1="226" x2="578" y2="258" />
    <line x1="578" y1="274" x2="578" y2="338" />
    <line x1="578" y1="354" x2="578" y2="386" />
    <line x1="578" y1="466" x2="578" y2="498" />
    <line x1="578" y1="562" x2="578" y2="594" />
    <line x1="594" y1="18" x2="594" y2="34" />
    <line x1="594" y1="50" x2="594" y2="82" />
    <line x1="594" y1="130" x2="594" y2="146" />
    <line x1="594" y1="178" x2="594" y2="194" />
    <line x1="594" y1="210" x2="594" y2="226" />
    <line x1="594" y1="242" x2="594" y2="306" />
    <line x1="594" y1="338" x2="594" y2="354" />
    <line x1="594" y1="370" x2="594" y2="402" />
    <line x1="594" y1="418" x2="594" y2="434" />
    <line x1="594" y1="450" x2="594" y2="514" />
    <line x1="594" y1="530" x2="594" y2="546" />
    <line x1="594" y1="578" x2="594" y2="626" />
    <line x1="610" y1="2" x2="610" y2="98" />
    <line x1="610" y1="114" x2="610" y2="130" />
    <line x1="610" y1="162" x2="610" y2="178" />
    <line x1="610" y1="194" x2="610" y2="210" />
    <line x1="610" y1="226" x2="610" y2="242" />
    <line x1="610" y1="274" x2="610" y2="338" />
    <line x1="610" y1="354" x2="610" y2="402" />
    <line x1="610" y1="434" x2="610" y2="482" />
    <line x1="610" y1="546" x2="610" y2="562" />
    <line x1="610" y1="578" x2="610" y2="610" />
    <line x1="626" y1="18" x2="626" y2="50" />
    <line x1="626" y1="66" x2="626" y2="82" />
    <line x1="626" y1="114" x2="626" y2="162" />
    <line x1="626" y1="242" x2="626" y2="274" />
    <line x1="626" y1="322" x2="626" y2="338" />
    <line x1="626" y1="354" x2="626" y2="370" />
    <line x1="626" y1="386" x2="626" y2="434" />
    <line x1="626" y1="466" x2="626" y2="530" />
    <line x1="626" y1="546" x2="626" y2="578" />
    <line x1="626" y1="594" x2="626" y2="610" />
    <line x1="642" y1="2" x2="642" y2="642" />
  </g>
  <polyline fill="none" stroke="#ff0000" stroke-width="2" stroke-linecap="square" stroke-linejoin="round" points="314,2 314,26 298,26 298,42 266,42 266,26 250,26 250,42 234,42 234,26 218,26 218,58 202,58 202,90 186,90 186,58 170,58 170,90 154,90 154,106 186,106 186,122 170,122 170,154 154,154 154,170 186,170 186,186 202,186 202,202 154,202 154,218 186,218 186,234 170,234 170,250 186,250 186,282 202,282 202,266 234,266 234,282 218,282 218,298 154,298 154,314 186,314 186,362 170,362 170,330 138,330 138,362 154,362 154,378 138,378 138,394 170,394 170,378 186,378 186,394 202,394 202,426 218,426 218,410 250,410 250,394 266,394 266,362 282,362 282,394 298,394 298,314 282,314 282,282 298,282 298,298 314,298 314,314 330,314 330,298 346,298 346,314 362,314 362,298 378,298 378,250 426,250 426,266 442,266 442,282 426,282 426,298 410,298 410,330 362,330 362,346 378,346 378,362 426,362 426,330 442,330 442,298 458,298 458,346 442,346 442,378 490,378 490,410 474,410 474,394 458,394 458,410 426,410 426,442 394,442 394,458 426,458 426,474 442,474 442,506 394,506 394,538 410,538 410,522 426,522 426,554 442,554 442,538 458,538 458,522 474,522 474,538 490,538 490,554 522,554 522,538 506,538 506,522 538,522 538,538 554,538 554,522 586,522 586,538 570,538 570,554 602,554 602,538 634,538 634,586 618,586 618,634 570,634 570,618 586,618 586,602 570,602 570,586 538,586 538,618 554,618 554,634 522,634 522,602 490,602 490,586 474,586 474,570 458,570 458,586 442,586 442,602 410,602 410,586 378,586 378,602 394,602 394,618 410,618 410,634 330,634 330,642" />
</svg>
